# Blender v2.78 (sub 0) OBJ File: 'conveyor belt.blend'
# www.blender.org
mtllib conveyor belt.mtl
o Cube
v 1.000000 0.014215 -1.000000
v 1.000000 0.014215 1.000000
v -1.000000 0.014215 1.000000
v -1.000000 0.014215 -1.000000
v 1.000000 0.164042 -0.999999
v 0.999999 0.164042 1.000001
v -1.000000 0.164042 1.000000
v -1.000000 0.164042 -1.000000
v 0.902334 0.014215 -1.000000
v -0.902332 0.014215 -1.000000
v 0.902333 0.014215 1.000000
v -0.902333 0.014215 1.000000
v 0.902334 0.164042 -1.000000
v -0.902333 0.164042 -1.000000
v 0.902332 0.164042 1.000000
v -0.902334 0.164042 1.000000
v 1.000000 0.296775 -0.999999
v 0.999999 0.296775 1.000001
v -0.902333 0.296775 -1.000000
v -1.000000 0.296775 -1.000000
v -0.902334 0.296775 1.000000
v -1.000000 0.296775 1.000000
v 0.902334 0.296775 -1.000000
v 0.902332 0.296775 1.000000
vt 0.5383 0.0001
vt 0.9195 0.0001
vt 0.9101 0.0085
vt 0.5490 0.0042
vt 0.7376 0.9478
vt 0.5567 0.8948
vt 0.5806 0.8889
vt 0.7091 0.9596
vt 0.9007 0.5025
vt 0.7695 0.9116
vt 0.5501 0.8577
vt 0.5476 0.5063
vt 0.8997 0.4049
vt 0.9074 0.3678
vt 0.6915 0.4210
vt 0.7292 0.4630
vt 0.9111 0.4981
vt 0.5383 0.4981
vt 0.6999 0.9999
vt 0.5645 0.9064
vt 0.7647 0.4978
vt 0.7554 0.4943
vt 0.8863 0.4197
vt 0.8700 0.4054
vt 0.0575 0.9363
vt 0.0011 0.9363
vt 0.0011 0.0620
vt 0.0575 0.0620
vt 1.0026 0.9368
vt 0.9363 0.9368
vt 0.9388 0.0640
vt 1.0026 0.0640
vt -0.0019 0.9366
vt -0.0019 0.0634
vt 0.9997 0.0634
vt 0.9997 0.9366
vt 0.4119 0.4271
vt 0.3564 0.4168
vt 0.0001 0.0639
vt 0.8309 0.0001
vn 0.0000 -1.0000 -0.0000
vn -1.0000 0.0000 -0.0000
vn 1.0000 0.0000 0.0000
vn -0.0000 0.0000 1.0000
vn 0.0000 0.0000 -1.0000
vn 0.0000 1.0000 -0.0000
usemtl sides
s off
f 10/1/1 12/2/1 3/3/1 4/4/1
f 13/5/2 15/6/2 24/7/2 23/8/2
f 1/9/3 5/10/3 6/11/3 2/12/3
f 12/2/4 16/13/4 7/14/4 3/3/4
f 3/3/2 7/14/2 8/15/2 4/4/2
f 14/16/5 10/1/5 4/4/5 8/15/5
f 5/10/5 1/9/5 9/17/5 13/5/5
f 2/12/4 6/11/4 15/6/4 11/18/4
f 6/11/3 5/10/3 17/19/3 18/20/3
f 1/9/1 2/12/1 11/18/1 9/17/1
f 19/21/6 20/22/6 22/23/6 21/24/6
f 17/19/6 23/8/6 24/7/6 18/20/6
f 8/15/2 7/14/2 22/23/2 20/22/2
f 14/16/5 8/15/5 20/22/5 19/21/5
f 15/6/4 6/11/4 18/20/4 24/7/4
f 5/10/5 13/5/5 23/8/5 17/19/5
f 16/13/3 14/16/3 19/21/3 21/24/3
f 7/14/4 16/13/4 21/24/4 22/23/4
usemtl belt
f 13/25/5 9/26/5 10/27/5 14/28/5
f 11/29/4 15/30/4 16/31/4 12/32/4
f 13/33/6 14/34/6 16/35/6 15/36/6
usemtl downside
f 9/37/1 11/38/1 12/39/1 10/40/1
